<svg xmlns="http://www.w3.org/2000/svg" xmlns:xlink="http://www.w3.org/1999/xlink" version="1.1" id="Layer_1" x="0px" y="0px" width="100px" height="100px" viewBox="0 0 100 100" enable-background="new 0 0 100 100" xml:space="preserve">
<g>
	<path d="M74.423,83.737h-0.791c1.337-1.808,2.129-4.044,2.129-6.465c0-2.763-1.03-5.285-2.727-7.203   c0.63-2.153,0.969-4.43,0.969-6.787c0-0.874,0-4.305,0-5.18c0-1.339-0.111-2.652-0.321-3.933c-2.381,1.41-5.086,2.154-7.878,2.154   c-3.635,0-7.133-1.271-9.914-3.59c-1.954,0.57-3.98,0.858-6.033,0.858c-1.979,0-3.936-0.268-5.823-0.798   c-2.77,2.279-6.241,3.529-9.837,3.529c-2.912,0-5.691-0.794-8.128-2.304c-0.226,1.326-0.346,2.691-0.346,4.082   c0,0.875,0,4.306,0,5.18c0,2.357,0.339,4.634,0.969,6.787c-1.696,1.918-2.727,4.44-2.727,7.203c0,2.421,0.792,4.657,2.128,6.465   h-0.791c-1.153,0-2.089,0.935-2.089,2.089v0.244c0,1.153,0.936,2.089,2.089,2.089h10.415l-0.001-0.037   c2.153-0.169,4.129-0.963,5.748-2.201c2.616,0.971,5.446,1.502,8.399,1.502c2.955,0,5.784-0.531,8.399-1.502   c1.619,1.237,3.596,2.032,5.748,2.201v0.037h10.413c1.154,0,2.09-0.936,2.09-2.089v-0.244   C76.513,84.672,75.577,83.737,74.423,83.737z M40.775,67.037c0,1.695-1.379,3.075-3.075,3.075h-0.244   c-1.696,0-3.075-1.38-3.075-3.075v-6.141h1.972v6.141c0,0.608,0.495,1.103,1.104,1.103H37.7c0.608,0,1.104-0.494,1.104-1.103   v-6.141h1.971V67.037z M65.344,67.037c0,1.695-1.379,3.075-3.074,3.075h-0.244c-1.695,0-3.075-1.38-3.075-3.075v-6.141h1.972v6.141   c0,0.608,0.496,1.103,1.104,1.103h0.244c0.608,0,1.104-0.494,1.104-1.103v-6.141h1.971V67.037z"/>
	<path d="M26.755,52.119c2.208,1.462,4.761,2.232,7.442,2.232c3.298,0,6.478-1.205,8.95-3.391l0.414-0.366l0.529,0.163   c1.86,0.574,3.8,0.865,5.766,0.865c2.034,0,4.042-0.312,5.965-0.929l0.539-0.171l0.42,0.377c2.481,2.226,5.687,3.453,9.022,3.453   c2.664,0,5.234-0.773,7.444-2.235c3.447-2.52,5.688-6.59,5.688-11.187c0-6.346-4.271-11.693-10.095-13.33   c-0.716-2.748-2.015-5.26-3.753-7.399c0.758-0.36,1.467-0.935,2.025-1.702c1.515-2.083,1.354-4.783-0.362-6.031   c-1.714-1.248-4.334-0.571-5.849,1.511c-0.416,0.571-0.699,1.189-0.865,1.811c-2.968-1.804-6.45-2.842-10.176-2.842   c-3.725,0-7.207,1.039-10.174,2.842c-0.166-0.622-0.451-1.239-0.866-1.811c-1.516-2.082-4.134-2.758-5.85-1.511   c-1.714,1.248-1.877,3.947-0.361,6.031c0.559,0.767,1.267,1.342,2.025,1.702c-1.757,2.161-3.064,4.703-3.775,7.484   c-5.672,1.732-9.798,7.006-9.798,13.245C21.063,45.528,23.306,49.601,26.755,52.119z M47.854,36.526h4.292   c1.152,0,1.438,0.676,0.633,1.501l-1.316,1.351c-0.804,0.826-2.121,0.826-2.925,0l-1.317-1.351   C46.417,37.202,46.701,36.526,47.854,36.526z M43.091,41.765c0,1.633,1.329,2.961,2.962,2.961c1.633,0,2.961-1.328,2.961-2.961   h1.972c0,1.633,1.329,2.961,2.962,2.961c1.632,0,2.961-1.328,2.961-2.961h1.972c0,2.719-2.213,4.933-4.933,4.933   c-1.616,0-3.047-0.784-3.948-1.987c-0.901,1.204-2.333,1.987-3.947,1.987c-2.72,0-4.933-2.214-4.933-4.933H43.091z"/>
</g>
</svg>